<svg xmlns="http://www.w3.org/2000/svg" width="19" height="20" viewBox="0 0 19 20">
  <g fill="none" fill-rule="evenodd" transform="translate(-8 -8)">
    <rect width="35" height="35"/>
    <path fill="#FFFFFF" d="M1.04861281,0 C0.469304595,0 -1.77635684e-15,0.470289062 -1.77635684e-15,1.0508125 L-1.77635684e-15,17.9890813 C-1.77635684e-15,18.5693656 0.469304595,19.0398938 1.04861281,19.0398938 L10.1484567,19.0398938 L10.1484567,11.6667281 L7.67250059,11.6667281 L7.67250059,8.79311719 L10.1484567,8.79311719 L10.1484567,6.67406719 C10.1484567,4.21469844 11.6472362,2.87568281 13.8366528,2.87568281 C14.8852656,2.87568281 15.786341,2.95390937 16.0490773,2.98891875 L16.0490773,5.55892031 L14.5308949,5.55955781 C13.3401521,5.55955781 13.1097807,6.12661406 13.1097807,6.95849844 L13.1097807,8.79311719 L15.9491729,8.79311719 L15.5795077,11.6667281 L13.1097807,11.6667281 L13.1097807,19.0398937 L17.9514243,19.0398937 C18.5304939,19.0398937 19.0000371,18.5693656 19.0000371,17.9890812 L19.0000371,1.0508125 C19.0000371,0.470289063 18.5304939,0 17.9514243,0 L1.04861281,0 Z" transform="translate(8 8)"/>
  </g>
</svg>
