<svg xmlns="http://www.w3.org/2000/svg" width="26" height="26" viewBox="0 0 26 26">
  <g fill="none" fill-rule="evenodd" transform="translate(-5 -5)">
    <rect width="35" height="35"/>
    <path fill="#FFFFFF" d="M27.2706653,15.6603242 L25.0793561,15.6603242 C25.2388435,16.2808672 25.3334963,16.9290781 25.3334963,17.5994023 C25.3334963,21.8825234 21.8652346,25.3535352 17.587349,25.3535352 C13.3096389,25.3535352 9.84155282,21.8825234 9.84155282,17.5994023 C9.84155282,16.9290781 9.93638124,16.2808672 10.0960442,15.6603242 L7.90420819,15.6603242 L7.90420819,26.3227227 C7.90420819,26.8572734 8.33792529,27.2912422 8.87349513,27.2912422 L26.3013784,27.2912422 C26.8371238,27.2912422 27.2706653,26.8572734 27.2706653,26.3227227 L27.2706653,15.6603242 L27.2706653,15.6603242 Z M27.2706653,8.87625781 C27.2706653,8.34121484 26.8371238,7.90707031 26.3013784,7.90707031 L23.3973458,7.90707031 C22.8626189,7.90707031 22.4291125,8.34121484 22.4291125,8.87625781 L22.4291125,11.7843828 C22.4291125,12.3194609 22.8626189,12.7535703 23.3973458,12.7535703 L26.3013784,12.7535703 C26.8371238,12.7535703 27.2706653,12.3194609 27.2706653,11.7843828 L27.2706653,8.87625781 L27.2706653,8.87625781 Z M17.587349,12.7535703 C14.9134333,12.7535703 12.7459366,14.9228867 12.7459366,17.5994023 C12.7459366,20.2757773 14.9134333,22.4462891 17.587349,22.4462891 C20.2614402,22.4462891 22.4291125,20.2757773 22.4291125,17.5994023 C22.4291125,14.9228867 20.2614402,12.7535703 17.587349,12.7535703 L17.587349,12.7535703 Z M27.2706653,30.1998594 L7.90420819,30.1998594 C6.30041374,30.1998594 5,28.8976367 5,27.2912422 L5,7.90707031 C5,6.30151953 6.30041374,5 7.90420819,5 L27.2706653,5 C28.8751622,5 30.1750491,6.30151953 30.1750491,7.90707031 L30.1750491,27.2912422 C30.1750491,28.8976367 28.8751622,30.1998594 27.2706653,30.1998594 L27.2706653,30.1998594 Z"/>
  </g>
</svg>
