<svg xmlns="http://www.w3.org/2000/svg" width="16" height="21" viewBox="0 0 16 21">
  <g fill="none" fill-rule="evenodd" transform="translate(-10 -7)">
    <rect width="35" height="35"/>
    <path fill="#FFFFFF" d="M16,6.80051253 C16,11.4587608 13.4122477,14.9374316 9.59454457,14.9374316 C8.31277877,14.9374316 7.10759654,14.2441714 6.69379723,13.456883 C6.69379723,13.456883 6.00463149,16.1935927 5.85904772,16.7209987 C5.34585698,18.5850707 3.8334754,20.4519686 3.7164663,20.6062891 C3.63454839,20.7115915 3.45277772,20.6783745 3.43403551,20.5387018 C3.4009627,20.3007621 3.01588223,17.9464513 3.47007823,16.0260373 C3.69789709,15.0630333 4.99684806,9.55723314 4.99684806,9.55723314 C4.99684806,9.55723314 4.61753443,8.79877887 4.61753443,7.67848448 C4.61753443,5.91887864 5.6384374,4.60556824 6.90711249,4.60556824 C7.98698137,4.60556824 8.5090242,5.41569336 8.5090242,6.38743406 C8.5090242,7.47379063 7.81830141,9.09712613 7.46084408,10.600771 C7.16235265,11.8608535 8.09228379,12.8875233 9.33492162,12.8875233 C11.5836416,12.8875233 13.0974361,9.99819426 13.0974361,6.57551942 C13.0974361,3.97398436 11.3462787,2.02557231 8.15860241,2.02557231 C4.55853969,2.02557231 2.31376994,4.71144735 2.31376994,7.71173029 C2.31376994,8.74540681 2.61941225,9.47557475 3.09670443,10.039283 C3.3159307,10.2989059 3.34759063,10.4033722 3.26806597,10.7018636 C3.2092154,10.9209457 3.08093214,11.4458143 3.02461898,11.6547467 C2.9467667,11.9546222 2.70320438,12.0627504 2.43063487,11.9518253 C0.772669522,11.2740491 0,9.45755338 0,7.41620877 C0,4.04324406 2.84440536,0 8.48396729,0 C13.0186035,-3.07318758e-15 16,3.27916712 16,6.80051253 L16,6.80051253 Z" transform="translate(10 7)"/>
  </g>
</svg>
