<svg xmlns="http://www.w3.org/2000/svg" width="19" height="16" viewBox="0 0 19 16">
  <g fill="none" fill-rule="evenodd" transform="translate(-8 -10)">
    <rect width="35" height="35"/>
    <path fill="#FFFFFF" d="M19.0000371,1.83161719 C18.3011297,2.14239844 17.5499243,2.35224219 16.7612116,2.44667188 C17.5659875,1.96312813 18.1841283,1.19765 18.4750945,0.2856 C17.7220866,0.733071875 16.887782,1.05835625 15.9999071,1.23345625 C15.2888331,0.47419375 14.27566,8.8817842e-16 13.1545508,8.8817842e-16 C11.0016342,8.8817842e-16 9.25631413,1.748875 9.25631413,3.90604219 C9.25631413,4.2123875 9.29085262,4.51044531 9.35725239,4.79631094 C6.11755305,4.63340313 3.24526579,3.07830156 1.32274713,0.714903125 C0.987143316,1.29181406 0.794941813,1.96288906 0.794941813,2.67882813 C0.794941813,4.03391406 1.48311385,5.22949219 2.52902295,5.93013125 C1.89002121,5.90989063 1.28895083,5.73402031 0.763478127,5.44143438 C0.763107031,5.45777031 0.763107031,5.47410625 0.763107031,5.49070781 C0.763107031,7.38328594 2.10682111,8.96200156 3.89007255,9.32099375 C3.56289793,9.41024375 3.21846732,9.45797656 2.86306286,9.45797656 C2.611857,9.45797656 2.36762246,9.43332656 2.12959054,9.38793125 C2.6256936,10.9396594 4.06533614,12.0690703 5.7710549,12.1007328 C4.43690981,13.1484375 2.75616055,13.7728156 0.9298089,13.7728156 C0.615172044,13.7728156 0.304908825,13.7544078 0,13.7183359 C1.72514832,14.8267625 3.77397234,15.4731875 5.97542307,15.4731875 C13.1454854,15.4731875 17.0663855,9.52100938 17.0663855,4.35895938 C17.0663855,4.18957031 17.0625155,4.02121719 17.0550141,3.85363438 C17.8165572,3.30294062 18.4776657,2.615025 19.0000371,1.83161719 L19.0000371,1.83161719 Z" transform="translate(8 10)"/>
  </g>
</svg>
